<?xml version="1.0" encoding="utf-8"?>
<!-- Generator: Adobe Illustrator 23.1.1, SVG Export Plug-In . SVG Version: 6.00 Build 0)  -->
<svg version="1.1" id="Layer_1" xmlns="http://www.w3.org/2000/svg" xmlns:xlink="http://www.w3.org/1999/xlink" x="0px" y="0px"
	 viewBox="0 0 252 144" enable-background="new 0 0 252 144" xml:space="preserve">
<path fill="none" stroke="#000000" stroke-miterlimit="10" d="M243,144H9c-5,0-9-4-9-9V9c0-5,4-9,9-9h234c5,0,9,4,9,9v126
	C252,140,248,144,243,144z"/>
<g>
	<path d="M37.3,46.8v50.4h49.4V46.8H37.3z M73.7,59.1l-1.6,2.1c-0.1,0.1-0.2,0.1-0.2,0.1H56.2c-0.4,0-0.5,0.2-0.6,0.3
		s-0.2,0.3,0.1,0.6l6.1,8.4l3.9-5.3c0.1-0.1,0.2-0.1,0.2-0.1h2.7c0.1,0,0.2,0.1,0.2,0.1c0.1,0.1,0.1,0.2,0,0.3l-5,6.8l6.7,9
		c0.7,1,0.8,2.2,0.2,3.2c-0.6,1-1.7,1.7-2.9,1.7H50.5c-0.1,0-0.2-0.1-0.2-0.1c-0.1-0.1-0.1-0.2,0-0.3l1.6-2.1
		c0.1-0.1,0.2-0.1,0.2-0.1h15.8c0.4,0,0.5-0.2,0.6-0.3c0.1-0.1,0.2-0.3-0.1-0.6l-6.1-8.4l-3.9,5.3c-0.1,0.1-0.2,0.1-0.2,0.1h-2.7
		c-0.1,0-0.2-0.1-0.2-0.1c-0.1-0.1-0.1-0.2,0-0.3l5-6.8l-6.7-9c-0.7-1-0.8-2.2-0.2-3.2s1.7-1.7,2.9-1.7h17.3c0.1,0,0.2,0.1,0.2,0.1
		S73.7,59,73.7,59.1z"/>
	<path d="M169.5,56.3L169.5,56.3v10.6h-0.1c-0.6-0.7-1.4-1.3-2.4-1.6c-1-0.4-2-0.6-3-0.6c-1.6,0-2.9,0.3-4.1,1
		c-1.2,0.6-2.2,1.5-2.9,2.5c-0.8,1-1.4,2.2-1.8,3.4c-0.4,1.3-0.6,2.6-0.6,3.9c0,1.4,0.2,2.7,0.6,4s1,2.5,1.8,3.5s1.8,1.9,2.9,2.5
		c1.2,0.6,2.5,1,4.1,1c1.3,0,2.5-0.3,3.6-0.7c1.2-0.5,2-1.2,2.6-2h0.1V86l0,0h8.2l0,0V56.3l0,0H169.5L169.5,56.3z M169,77.9
		c-0.7,0.7-1.5,1-2.6,1s-1.9-0.4-2.5-1c-0.6-0.7-0.9-1.5-0.9-2.5c0-0.9,0.3-1.7,0.9-2.4c0.6-0.7,1.4-1,2.5-1s1.9,0.4,2.6,1
		c0.7,0.7,1,1.5,1,2.4C169.9,76.5,169.6,77.3,169,77.9z M144.9,65.3L144.9,65.3v10.9c0,0.9-0.2,1.6-0.6,2.1
		c-0.4,0.5-0.9,0.7-1.5,0.7c-0.7,0-1.2-0.2-1.5-0.6c-0.4-0.4-0.5-1.2-0.5-2.2V65.3l0,0h-9l0,0v12.5c0,1,0.1,2.1,0.4,3.1
		c0.2,1,0.6,2,1.2,2.8c0.6,0.8,1.3,1.5,2.3,2s2.1,0.8,3.6,0.8c1.3,0,2.5-0.3,3.5-0.9s1.8-1.2,2.3-2h0.1v2.3l0,0h8.7l0,0V65.3l0,0
		H144.9L144.9,65.3z M125.4,65.3L125.4,65.3v-4.6l0,0h-8.8l0,0v4.6l0,0h-2.9l0,0V67c-1.2-0.7-2.4-1.3-3.8-1.7
		c-1.6-0.5-3.1-0.7-4.7-0.7c-1,0-1.9,0.2-3,0.4c-1.1,0.3-2,0.7-2.9,1.3s-1.7,1.4-2.2,2.3c-0.6,1-0.9,2.1-0.9,3.4
		c0,1,0.2,1.9,0.6,2.6s0.8,1.3,1.4,1.8s1.2,0.9,1.9,1.2c0.7,0.3,1.4,0.5,2,0.7c1.2,0.3,2,0.5,2.5,0.7s0.7,0.5,0.7,0.8
		s-0.2,0.5-0.4,0.7c-0.3,0.1-0.6,0.2-0.9,0.2c-0.8,0-1.6-0.2-2.5-0.5c-0.9-0.4-1.6-0.8-2.2-1.4l0,0l-4.3,5l0,0
		c1.3,1,2.7,1.7,4.4,2.2c1.7,0.5,3.4,0.8,5.2,0.8c1,0,2-0.1,3-0.4c1.1-0.3,2.1-0.7,2.9-1.2c0.9-0.6,1.6-1.3,2.2-2.3s0.9-2.1,0.9-3.5
		c0-1-0.2-1.9-0.6-2.6s-0.9-1.4-1.5-1.9s-1.3-0.9-2.1-1.3c-0.8-0.3-1.6-0.6-2.4-0.7c-1.2-0.3-1.9-0.4-2.2-0.6
		c-0.3-0.2-0.5-0.4-0.5-0.6c0-0.4,0.2-0.6,0.5-0.7s0.7-0.2,1.1-0.2c0.7,0,1.3,0.1,2,0.4s1.4,0.6,2,1l0,0l3.8-4.6l0,0v4.1l0,0h2.9
		l0,0V79c0,2.5,0.7,4.3,2,5.5s3.4,1.8,6.1,1.8c1,0,1.8-0.1,2.7-0.2c0.9-0.2,1.5-0.3,2-0.5l0,0v-6.2c-0.2,0.1-0.5,0.1-0.8,0.2
		s-0.6,0.1-0.9,0.1c-0.8,0-1.4-0.2-1.8-0.5c-0.5-0.4-0.7-1-0.7-2v-5.5l0,0h4.5l0,0v-6.4l0,0h-4.5v0H125.4z M213.7,70.8
		c-0.7-1.4-1.5-2.5-2.6-3.5s-2.3-1.7-3.8-2.1c-1.4-0.5-2.9-0.7-4.5-0.7s-3,0.3-4.4,0.7c-1.4,0.5-2.7,1.2-3.7,2.1
		c-1.1,1-1.9,2.1-2.6,3.5c-0.7,1.4-1,2.9-1,4.7c0,1.8,0.3,3.4,1,4.7c0.7,1.4,1.5,2.6,2.6,3.5c1.1,1,2.3,1.7,3.7,2.2s2.9,0.8,4.4,0.8
		c1.6,0,3.1-0.3,4.5-0.8s2.7-1.2,3.8-2.2s2-2.1,2.6-3.5c0.7-1.4,1-3,1-4.7C214.7,73.7,214.4,72.2,213.7,70.8z M205.4,78
		c-0.6,0.7-1.4,1-2.4,1s-1.8-0.4-2.4-1c-0.6-0.7-1-1.5-1-2.5c0-0.7,0.2-1.4,0.6-2c0.7-1,1.6-1.4,2.7-1.4c1,0,1.8,0.4,2.5,1
		c0.7,0.7,1,1.5,1,2.4C206.3,76.5,206,77.3,205.4,78z M180.6,77.9L180.6,77.9v7.9l0,0h9l0,0V65.3l0,0L180.6,77.9z M188.4,56.1
		c-0.5-0.4-0.9-0.8-1.5-1c-0.6-0.3-1.2-0.4-1.8-0.4c-0.3,0-0.6,0.1-0.8,0.1c-0.4,0.1-0.7,0.2-1.1,0.3c-0.6,0.3-1.1,0.6-1.5,1
		s-0.8,0.9-1,1.5c-0.3,0.6-0.4,1.2-0.4,1.8c0,0.7,0.1,1.3,0.4,1.8c0.3,0.6,0.6,1.1,1,1.5c0.5,0.4,1,0.7,1.5,1
		c0.6,0.3,1.2,0.4,1.8,0.4s1.2-0.1,1.8-0.4c0.6-0.3,1.1-0.6,1.5-1c0.5-0.4,0.8-0.9,1-1.5c0.3-0.6,0.4-1.2,0.4-1.8s-0.1-1.2-0.4-1.8
		C189.2,57,188.9,56.5,188.4,56.1z"/>
</g>
</svg>
