<?xml version="1.0" encoding="utf-8"?>
<!-- Generator: Adobe Illustrator 23.1.1, SVG Export Plug-In . SVG Version: 6.00 Build 0)  -->
<svg version="1.1" id="Layer_1" xmlns="http://www.w3.org/2000/svg" xmlns:xlink="http://www.w3.org/1999/xlink" x="0px" y="0px"
	 viewBox="0 0 144 252" enable-background="new 0 0 144 252" xml:space="preserve">
<path fill="none" stroke="#000000" stroke-miterlimit="10" d="M144,9v234c0,5-4,9-9,9H9c-5,0-9-4-9-9V9c0-5,4-9,9-9h126
	C140,0,144,4,144,9z"/>
<path fill="#FFFFFF" stroke="#231F20" stroke-miterlimit="10" d="M103.5,27h-63C38,27,36,25,36,22.5l0,0c0-2.5,2-4.5,4.5-4.5h63
	c2.5,0,4.5,2,4.5,4.5l0,0C108,25,106,27,103.5,27z"/>
</svg>
