<?xml version="1.0" encoding="utf-8"?>
<!-- Generator: Adobe Illustrator 23.1.1, SVG Export Plug-In . SVG Version: 6.00 Build 0)  -->
<svg version="1.1" id="Layer_1" xmlns="http://www.w3.org/2000/svg" xmlns:xlink="http://www.w3.org/1999/xlink" x="0px" y="0px"
	 viewBox="0 0 144 252" enable-background="new 0 0 144 252" xml:space="preserve">
<path fill="none" stroke="#000000" stroke-miterlimit="10" d="M144,9v234c0,5-4,9-9,9H9c-5,0-9-4-9-9V9c0-5,4-9,9-9h126
	C140,0,144,4,144,9z"/>
<g>
	<path d="M114,67.7H28.7v86.9H114V67.7z M51.5,135.8c-0.1,0-0.3-0.1-0.3-0.3s0-0.3,0-0.4l2.6-3.6c0.1-0.1,0.1-0.1,0.3-0.1h27.2
		c0.6,0,0.9-0.4,1-0.6c0.1-0.1,0.3-0.6,0-1l-10.7-14.5l-6.8,9.1c-0.1,0.1-0.1,0.1-0.3,0.1h-4.6c-0.1,0-0.3-0.1-0.3-0.3s0-0.3,0-0.4
		l8.7-11.7L56.8,96.5c-1.2-1.6-1.3-3.8-0.4-5.5c1-1.7,2.9-2.9,5.1-2.9h29.8c0.1,0,0.3,0.1,0.3,0.3c0.1,0.1,0.1,0.3,0.1,0.4L89,92.4
		c-0.1,0.1-0.1,0.1-0.3,0.1H61.4c-0.6,0-0.9,0.4-1,0.6c-0.1,0.1-0.3,0.6,0,1l10.8,14.5l6.8-9.1c0.1-0.1,0.1-0.1,0.3-0.1h4.6
		c0.1,0,0.3,0.1,0.3,0.3c0,0.1,0,0.3,0,0.4l-8.7,11.7l11.6,15.6c1.2,1.6,1.3,3.8,0.4,5.5c-1,1.7-2.9,2.9-5.1,2.9
		C81.5,135.8,51.5,135.8,51.5,135.8z"/>
	<g>
		<path d="M81.2,183.5c0.9-0.4,1.4-0.9,1.9-1.4v1.6H89v-21.5h-6.5v7.7c-0.4-0.4-1-0.9-1.7-1.2s-1.4-0.4-2.2-0.4
			c-1.2,0-2,0.3-2.9,0.7s-1.6,1-2.2,1.7s-1,1.6-1.3,2.5s-0.4,1.9-0.4,2.9s0.1,2,0.4,2.9c0.3,1,0.7,1.7,1.3,2.6
			c0.6,0.7,1.3,1.3,2.2,1.9c0.9,0.4,1.9,0.7,2.9,0.7C79.4,184.1,80.5,184,81.2,183.5z M78.3,177.9c-0.4-0.4-0.6-1.2-0.6-1.9
			s0.3-1.2,0.6-1.7c0.4-0.4,1-0.7,1.9-0.7c0.7,0,1.4,0.3,1.9,0.7c0.4,0.4,0.7,1,0.7,1.7s-0.1,1.3-0.7,1.9c-0.4,0.4-1.2,0.7-1.9,0.7
			C79.4,178.6,78.7,178.3,78.3,177.9z"/>
		<path d="M64.7,168.6L64.7,168.6v7.8c0,0.7-0.1,1.2-0.4,1.4c-0.3,0.4-0.6,0.6-1.2,0.6s-0.9-0.1-1.2-0.4c-0.3-0.3-0.4-0.9-0.4-1.6
			v-7.8l0,0H55l0,0v9.1c0,0.7,0.1,1.4,0.3,2.2c0.1,0.7,0.4,1.4,0.9,2c0.4,0.6,1,1.2,1.6,1.4c0.7,0.4,1.6,0.6,2.6,0.6
			s1.9-0.1,2.6-0.6c0.7-0.4,1.3-0.9,1.7-1.4l0,0v1.6l0,0h6.4l0,0v-14.9l0,0L64.7,168.6L64.7,168.6z"/>
		<path d="M50.5,168.6L50.5,168.6v-3.3l0,0h-6.4l0,0v3.3l0,0h-2l0,0v1.2c-0.9-0.4-1.7-1-2.7-1.2c-1.2-0.3-2.3-0.4-3.5-0.4
			c-0.7,0-1.4,0.1-2.2,0.3c-0.7,0.1-1.4,0.4-2.2,1c-0.6,0.4-1.2,1-1.6,1.6c-0.4,0.7-0.6,1.4-0.6,2.5c0,0.7,0.1,1.3,0.4,1.9
			c0.3,0.4,0.6,1,1,1.3c0.4,0.4,0.9,0.6,1.3,0.9c0.4,0.3,1,0.4,1.4,0.4c0.9,0.3,1.4,0.4,1.9,0.6s0.6,0.3,0.6,0.6s-0.1,0.4-0.3,0.4
			c-0.1,0.1-0.4,0.1-0.6,0.1c-0.6,0-1.2-0.1-1.7-0.4c-0.6-0.3-1.2-0.6-1.6-1l0,0l-3.2,3.8l0,0c0.9,0.7,2,1.2,3.2,1.6
			c1.2,0.4,2.5,0.6,3.8,0.6c0.7,0,1.4-0.1,2.2-0.3s1.4-0.4,2.2-0.9c0.6-0.4,1.2-1,1.6-1.6c0.4-0.7,0.6-1.4,0.6-2.5
			c0-0.7-0.1-1.3-0.4-1.9c-0.3-0.6-0.6-1-1-1.3c-0.4-0.4-1-0.7-1.4-0.9c-0.6-0.3-1.2-0.4-1.7-0.6c-0.9-0.1-1.4-0.3-1.6-0.4
			c-0.3-0.1-0.4-0.3-0.4-0.4c0-0.3,0.1-0.4,0.3-0.4c0.3-0.1,0.4-0.1,0.7-0.1c0.4,0,1,0.1,1.4,0.3s1,0.4,1.4,0.7l0,0l2.7-3.3l0,0v2.9
			l0,0h2l0,0v5.3c0,1.9,0.4,3.2,1.4,4c1,0.9,2.5,1.3,4.5,1.3c0.7,0,1.3,0,2-0.1c0.6-0.1,1.2-0.3,1.4-0.4l0,0v-4.5
			c-0.1,0-0.3,0.1-0.6,0.1s-0.4,0-0.6,0c-0.6,0-1-0.1-1.3-0.4c-0.3-0.3-0.4-0.7-0.4-1.4v-3.9l0,0h3.2l0,0v-4.6l0,0L50.5,168.6
			L50.5,168.6L50.5,168.6z"/>
		<path d="M109.9,183.7c1-0.4,2-0.9,2.7-1.6c0.7-0.7,1.4-1.6,1.9-2.6c0.4-1,0.7-2.2,0.7-3.5c0-1.2-0.3-2.3-0.7-3.3
			c-0.4-1-1.2-1.9-1.9-2.5c-0.7-0.7-1.7-1.2-2.7-1.6c-1-0.4-2-0.6-3.2-0.6s-2.2,0.1-3.2,0.6c-1,0.4-2,0.9-2.7,1.6
			c-0.7,0.7-1.4,1.4-1.9,2.5s-0.7,2.2-0.7,3.3c0,1.3,0.3,2.5,0.7,3.5c0.4,1,1.2,1.9,1.9,2.6c0.7,0.7,1.7,1.2,2.7,1.6s2,0.6,3.2,0.6
			S108.9,184.1,109.9,183.7z M105,177.9c-0.4-0.4-0.7-1.2-0.7-1.9c0-0.4,0.1-1,0.4-1.4c0.4-0.7,1.2-1,2-1c0.7,0,1.3,0.3,1.7,0.7
			c0.4,0.4,0.7,1,0.7,1.7s-0.3,1.4-0.7,1.9c-0.4,0.4-1,0.7-1.7,0.7C106,178.6,105.5,178.3,105,177.9z"/>
		<polygon points="90.6,177.9 90.6,177.9 90.6,183.7 90.6,183.7 97.1,183.7 97.1,183.7 97.1,168.8 97.1,168.8 		"/>
		<path d="M96.2,162c-0.3-0.3-0.7-0.6-1-0.7c-0.4-0.1-0.9-0.3-1.3-0.3c-0.1,0-0.4,0-0.6,0c-0.3,0-0.4,0.1-0.7,0.3
			c-0.4,0.1-0.7,0.4-1.2,0.7c-0.3,0.3-0.6,0.6-0.7,1s-0.3,0.9-0.3,1.3c0,0.4,0.1,0.9,0.3,1.3s0.4,0.7,0.7,1c0.3,0.3,0.7,0.6,1.2,0.7
			s0.9,0.3,1.3,0.3s0.9-0.1,1.3-0.3s0.7-0.4,1-0.7s0.6-0.6,0.7-1s0.3-0.9,0.3-1.3c0-0.4-0.1-0.9-0.3-1.3
			C96.8,162.7,96.5,162.3,96.2,162z"/>
	</g>
</g>
</svg>
