<?xml version="1.0" encoding="utf-8"?>
<!-- Generator: Adobe Illustrator 23.1.1, SVG Export Plug-In . SVG Version: 6.00 Build 0)  -->
<svg version="1.1"
	 id="svg4171" xmlns:cc="http://creativecommons.org/ns#" xmlns:dc="http://purl.org/dc/elements/1.1/" xmlns:inkscape="http://www.inkscape.org/namespaces/inkscape" xmlns:rdf="http://www.w3.org/1999/02/22-rdf-syntax-ns#" xmlns:sodipodi="http://sodipodi.sourceforge.net/DTD/sodipodi-0.dtd" xmlns:svg="http://www.w3.org/2000/svg"
	 xmlns="http://www.w3.org/2000/svg" xmlns:xlink="http://www.w3.org/1999/xlink" x="0px" y="0px" viewBox="0 0 140.4 81.4"
	 enable-background="new 0 0 140.4 81.4" xml:space="preserve">
<g>
	
		<path id="path8" inkscape:connector-curvature="0" fill="none" stroke="#000000" stroke-width="0.1119" stroke-miterlimit="4.989" d="
		M6.5,40.5C6.5,37.4,9,35,12,35s5.5,2.5,5.5,5.5S15,46,12,46S6.5,43.5,6.5,40.5L6.5,40.5z"/>
	
		<path id="path11" inkscape:connector-curvature="0" fill="none" stroke="#000000" stroke-width="0.1119" stroke-miterlimit="4.989" d="
		M6.7,70.8c-8.9-19.1-8.9-41.2,0-60.3C9.7,4.2,16,0.2,23,0.2h94.3c6.9,0,13.2,4,16.1,10.2c8.9,19.1,8.9,41.2,0,60.3
		C130.5,77,124.1,81,117.2,81H23C16,81,9.7,77,6.7,70.8z"/>
</g>
<rect x="49.9" y="26.5" width="28.8" height="28.3"/>
<path fill="#FFFFFF" d="M56.8,34c0,0-0.1,0.1-0.1,0.1V44c0,0.7,0.4,1.3,0.9,1.7c0.6,0.3,1.3,0.3,1.8-0.1l5.2-3.8l3.9,2.9
	c0,0,0.1,0,0.1,0c0,0,0.1-0.1,0.1-0.1v-1.6c0,0,0-0.1,0-0.1l-3-2.2l4.8-3.6c0.1-0.1,0.3-0.1,0.3,0c0.1,0,0.2,0.1,0.2,0.3v9
	c0,0,0,0.1,0,0.1l1.2,0.9c0,0,0.1,0,0.1,0c0,0,0.1-0.1,0.1-0.1v-9.9c0-0.7-0.4-1.3-0.9-1.7s-1.3-0.3-1.8,0.1l-5.2,3.8l-3.9-2.9
	c0,0-0.1,0-0.1,0c0,0-0.1,0.1-0.1,0.1v1.6c0,0,0,0.1,0,0.1l3,2.2l-4.8,3.6c-0.1,0.1-0.3,0.1-0.3,0c-0.1,0-0.2-0.1-0.2-0.3v-9
	c0,0,0-0.1,0-0.1L56.9,34C56.9,34,56.8,33.9,56.8,34z"/>
<path d="M88.3,37.4c-0.1-0.3-0.3-0.5-0.5-0.6v0h0.5v-2h-7.1l0,2.2h2.6v0c-0.2,0.2-0.3,0.3-0.4,0.6c-0.1,0.2-0.1,0.5-0.1,0.7
	c0,0.4,0.1,0.7,0.2,1c0.2,0.3,0.3,0.5,0.6,0.7c0.2,0.2,0.5,0.3,0.8,0.4c0.3,0.1,0.6,0.2,0.9,0.2c0.3,0,0.6,0,1-0.2
	c0.3-0.1,0.6-0.2,0.8-0.4c0.2-0.2,0.5-0.4,0.6-0.7s0.2-0.6,0.2-1C88.5,38,88.4,37.7,88.3,37.4z M86.4,38.3c-0.2,0.1-0.4,0.2-0.6,0.2
	c-0.2,0-0.4-0.1-0.6-0.2C85.1,38.2,85,38,85,37.7c0-0.3,0.1-0.5,0.2-0.6c0.2-0.2,0.3-0.2,0.6-0.2c0.2,0,0.4,0.1,0.6,0.2
	c0.2,0.2,0.2,0.4,0.2,0.6C86.7,38,86.6,38.2,86.4,38.3z"/>
<path d="M83.4,42.9L83.4,42.9H86c0.2,0,0.4,0,0.5,0.1c0.1,0.1,0.2,0.2,0.2,0.4c0,0.2,0,0.3-0.2,0.4c-0.1,0.1-0.3,0.1-0.5,0.1h-2.6
	l0,0V46l0,0h3c0.2,0,0.5,0,0.7-0.1c0.2-0.1,0.5-0.2,0.7-0.3c0.2-0.1,0.4-0.3,0.5-0.5c0.1-0.2,0.2-0.5,0.2-0.9c0-0.3-0.1-0.6-0.2-0.8
	c-0.1-0.2-0.3-0.4-0.5-0.6v0h0.5l0,0v-2.1l0,0h-4.9l0,0L83.4,42.9L83.4,42.9z"/>
<path d="M83.4,47.6L83.4,47.6h-1.1l0,0v2.1l0,0h1.1l0,0v0.7l0,0h0.4c-0.2,0.3-0.3,0.6-0.4,0.9c-0.1,0.4-0.2,0.8-0.2,1.1
	c0,0.2,0,0.5,0.1,0.7c0.1,0.3,0.2,0.5,0.3,0.7c0.1,0.2,0.3,0.4,0.5,0.5c0.2,0.1,0.5,0.2,0.8,0.2c0.2,0,0.4,0,0.6-0.1
	c0.2-0.1,0.3-0.2,0.4-0.3c0.1-0.1,0.2-0.3,0.3-0.5c0.1-0.2,0.1-0.3,0.2-0.5c0.1-0.3,0.1-0.5,0.2-0.6c0-0.1,0.1-0.2,0.2-0.2
	c0.1,0,0.1,0,0.2,0.1c0,0.1,0,0.1,0,0.2c0,0.2,0,0.4-0.1,0.6c-0.1,0.2-0.2,0.4-0.3,0.5l0,0l1.2,1.1l0,0c0.2-0.3,0.4-0.7,0.5-1.1
	c0.1-0.4,0.2-0.8,0.2-1.3c0-0.2,0-0.5-0.1-0.7c-0.1-0.3-0.2-0.5-0.3-0.7c-0.1-0.2-0.3-0.4-0.5-0.5c-0.2-0.1-0.5-0.2-0.8-0.2
	c-0.2,0-0.4,0-0.6,0.1c-0.2,0.1-0.3,0.2-0.5,0.3c-0.1,0.2-0.2,0.3-0.3,0.5c-0.1,0.2-0.1,0.4-0.2,0.6c-0.1,0.3-0.1,0.5-0.1,0.5
	c0,0.1-0.1,0.1-0.2,0.1c-0.1,0-0.1,0-0.2-0.1s0-0.2,0-0.3c0-0.2,0-0.3,0.1-0.5s0.1-0.3,0.2-0.5l0,0L84,50.4l0,0h1l0,0v-0.7l0,0h1.8
	c0.6,0,1-0.2,1.3-0.5c0.3-0.3,0.4-0.8,0.4-1.5c0-0.2,0-0.4,0-0.6c0-0.2-0.1-0.4-0.1-0.5l0,0h-1.5c0,0,0,0.1,0,0.2c0,0.1,0,0.2,0,0.2
	c0,0.2,0,0.3-0.1,0.4c-0.1,0.1-0.2,0.2-0.5,0.2H85l0,0v-1.1l0,0h-1.6l0,0L83.4,47.6L83.4,47.6L83.4,47.6z"/>
<path d="M88.3,27.9c-0.1-0.3-0.3-0.6-0.5-0.9c-0.2-0.3-0.5-0.5-0.8-0.6s-0.7-0.2-1.1-0.2c-0.4,0-0.8,0.1-1.1,0.2s-0.6,0.4-0.8,0.6
	c-0.2,0.3-0.4,0.6-0.5,0.9c-0.1,0.3-0.2,0.7-0.2,1.1c0,0.4,0.1,0.7,0.2,1.1c0.1,0.3,0.3,0.6,0.5,0.9c0.2,0.3,0.5,0.5,0.8,0.6
	c0.3,0.2,0.7,0.2,1.1,0.2c0.4,0,0.8-0.1,1.1-0.2c0.3-0.2,0.6-0.4,0.8-0.6c0.2-0.3,0.4-0.6,0.5-0.9s0.2-0.7,0.2-1.1
	C88.5,28.5,88.4,28.2,88.3,27.9z M86.4,29.5c-0.2,0.2-0.4,0.2-0.6,0.2c-0.2,0-0.3,0-0.5-0.2c-0.2-0.2-0.3-0.4-0.3-0.6
	c0-0.2,0.1-0.4,0.2-0.6c0.2-0.2,0.3-0.2,0.6-0.2c0.2,0,0.4,0.1,0.6,0.2c0.2,0.2,0.2,0.3,0.2,0.6C86.7,29.2,86.6,29.4,86.4,29.5z"/>
<polygon points="86.4,34.3 86.4,34.3 88.3,34.3 88.3,34.3 88.3,32.1 88.3,32.1 83.4,32.1 83.4,32.1 "/>
<path d="M81.2,32.4c-0.1,0.1-0.2,0.2-0.2,0.3c-0.1,0.1-0.1,0.3-0.1,0.4c0,0.1,0,0.1,0,0.2c0,0.1,0,0.2,0.1,0.3
	c0.1,0.1,0.1,0.3,0.2,0.4c0.1,0.1,0.2,0.2,0.3,0.2s0.3,0.1,0.4,0.1c0.2,0,0.3,0,0.4-0.1c0.1-0.1,0.3-0.1,0.3-0.2
	c0.1-0.1,0.2-0.2,0.2-0.4c0.1-0.1,0.1-0.3,0.1-0.4s0-0.3-0.1-0.4c-0.1-0.1-0.1-0.3-0.2-0.3c-0.1-0.1-0.2-0.2-0.3-0.2
	c-0.1-0.1-0.3-0.1-0.4-0.1c-0.2,0-0.3,0-0.4,0.1C81.4,32.2,81.3,32.3,81.2,32.4z"/>
</svg>
