<?xml version="1.0" encoding="utf-8"?>
<!-- Generator: Adobe Illustrator 23.1.1, SVG Export Plug-In . SVG Version: 6.00 Build 0)  -->
<svg version="1.1"
	 id="svg4171" xmlns:cc="http://creativecommons.org/ns#" xmlns:dc="http://purl.org/dc/elements/1.1/" xmlns:inkscape="http://www.inkscape.org/namespaces/inkscape" xmlns:rdf="http://www.w3.org/1999/02/22-rdf-syntax-ns#" xmlns:sodipodi="http://sodipodi.sourceforge.net/DTD/sodipodi-0.dtd" xmlns:svg="http://www.w3.org/2000/svg"
	 xmlns="http://www.w3.org/2000/svg" xmlns:xlink="http://www.w3.org/1999/xlink" x="0px" y="0px" viewBox="0 0 140.4 81.4"
	 enable-background="new 0 0 140.4 81.4" xml:space="preserve">
<path id="path8" inkscape:connector-curvature="0" fill="none" stroke="#000000" stroke-width="0.1119" stroke-miterlimit="4.989" d="
	M6.5,40.5C6.5,37.4,9,35,12,35s5.5,2.5,5.5,5.5S15,46,12,46S6.5,43.5,6.5,40.5L6.5,40.5z"/>
<path id="path11" inkscape:connector-curvature="0" fill="none" stroke="#000000" stroke-width="0.1119" stroke-miterlimit="4.989" d="
	M6.7,70.8c-8.9-19.1-8.9-41.2,0-60.3C9.7,4.2,16,0.2,23,0.2h94.3c6.9,0,13.2,4,16.1,10.2c8.9,19.1,8.9,41.2,0,60.3
	C130.5,77,124.1,81,117.2,81H23C16,81,9.7,77,6.7,70.8z"/>
<path d="M56.8,34c0,0-0.1,0.1-0.1,0.1V44c0,0.7,0.4,1.3,0.9,1.7c0.6,0.3,1.3,0.3,1.8-0.1l5.2-3.8l3.9,2.9c0,0,0.1,0,0.1,0
	c0,0,0.1-0.1,0.1-0.1v-1.6c0,0,0-0.1,0-0.1l-3-2.2l4.8-3.6c0.1-0.1,0.3-0.1,0.3,0c0.1,0,0.2,0.1,0.2,0.3v9c0,0,0,0.1,0,0.1l1.2,0.9
	c0,0,0.1,0,0.1,0c0,0,0.1-0.1,0.1-0.1v-9.9c0-0.7-0.4-1.3-0.9-1.7s-1.3-0.3-1.8,0.1l-5.2,3.8l-3.9-2.9c0,0-0.1,0-0.1,0
	c0,0-0.1,0.1-0.1,0.1v1.6c0,0,0,0.1,0,0.1l3,2.2l-4.8,3.6c-0.1,0.1-0.3,0.1-0.3,0c-0.1,0-0.2-0.1-0.2-0.3v-9c0,0,0-0.1,0-0.1
	L56.9,34C56.9,34,56.8,33.9,56.8,34z"/>
</svg>
