<?xml version="1.0" encoding="utf-8"?>
<!-- Generator: Adobe Illustrator 23.1.1, SVG Export Plug-In . SVG Version: 6.00 Build 0)  -->
<svg version="1.1"
	 id="svg4171" xmlns:cc="http://creativecommons.org/ns#" xmlns:dc="http://purl.org/dc/elements/1.1/" xmlns:inkscape="http://www.inkscape.org/namespaces/inkscape" xmlns:rdf="http://www.w3.org/1999/02/22-rdf-syntax-ns#" xmlns:sodipodi="http://sodipodi.sourceforge.net/DTD/sodipodi-0.dtd" xmlns:svg="http://www.w3.org/2000/svg"
	 xmlns="http://www.w3.org/2000/svg" xmlns:xlink="http://www.w3.org/1999/xlink" x="0px" y="0px" viewBox="0 0 140.4 81.4"
	 enable-background="new 0 0 140.4 81.4" xml:space="preserve">
<g>
	
		<path id="path8" inkscape:connector-curvature="0" fill="none" stroke="#000000" stroke-width="0.1119" stroke-miterlimit="4.989" d="
		M6.5,40.5C6.5,37.4,9,35,12,35s5.5,2.5,5.5,5.5S15,46,12,46S6.5,43.5,6.5,40.5L6.5,40.5z"/>
	
		<path id="path11" inkscape:connector-curvature="0" fill="none" stroke="#000000" stroke-width="0.1119" stroke-miterlimit="4.989" d="
		M6.7,70.8c-8.9-19.1-8.9-41.2,0-60.3C9.7,4.2,16,0.2,23,0.2h94.3c6.9,0,13.2,4,16.1,10.2c8.9,19.1,8.9,41.2,0,60.3
		C130.5,77,124.1,81,117.2,81H23C16,81,9.7,77,6.7,70.8z"/>
</g>
<g>
	<path d="M49.9,25.9v29.5h30V25.9H49.9z M73.4,47.5C73.4,47.6,73.3,47.6,73.4,47.5c-0.1,0.1-0.2,0.1-0.2,0.1L72,46.7c0,0,0,0,0-0.1
		v-9.4c0-0.2-0.1-0.3-0.2-0.3s-0.2-0.1-0.3,0l-5,3.7l3.1,2.3c0,0,0,0,0,0.1v1.6c0,0,0,0.1-0.1,0.1s-0.1,0-0.1,0l-4-3l-5.4,4
		c-0.5,0.4-1.3,0.4-1.9,0.1c-0.6-0.3-1-1-1-1.7V33.8c0,0,0-0.1,0.1-0.1h0.1l1.2,0.9c0,0,0,0,0,0.1v9.4c0,0.2,0.1,0.3,0.2,0.3
		c0,0,0.2,0.1,0.3,0l5-3.7l-3.1-2.3c0,0,0,0,0-0.1v-1.6c0,0,0-0.1,0.1-0.1s0.1,0,0.1,0l4,3l5.4-4c0.5-0.4,1.3-0.4,1.9-0.1
		c0.6,0.3,1,1,1,1.7C73.4,37.2,73.4,47.5,73.4,47.5z"/>
	<g>
		<path d="M89.9,37.3c-0.1-0.3-0.3-0.5-0.5-0.6h0.5v-2h-7.4v2.2h2.6c-0.1,0.1-0.3,0.3-0.4,0.6c-0.1,0.2-0.1,0.5-0.1,0.7
			c0,0.4,0.1,0.7,0.2,1s0.3,0.5,0.6,0.7c0.2,0.2,0.5,0.3,0.8,0.4c0.3,0.1,0.6,0.1,1,0.1s0.7,0,1-0.1s0.6-0.2,0.9-0.4
			c0.2-0.2,0.4-0.4,0.6-0.7c0.1-0.3,0.2-0.6,0.2-1C90.1,37.9,90,37.5,89.9,37.3z M87.9,38.3c-0.1,0.1-0.4,0.2-0.6,0.2
			s-0.4-0.1-0.6-0.2c-0.2-0.1-0.2-0.3-0.2-0.6c0-0.2,0.1-0.5,0.2-0.6s0.3-0.2,0.6-0.2c0.2,0,0.4,0,0.6,0.2c0.1,0.1,0.2,0.4,0.2,0.6
			C88.2,37.9,88.1,38.1,87.9,38.3z"/>
		<path d="M84.7,43L84.7,43h2.7c0.2,0,0.4,0,0.5,0.1s0.2,0.2,0.2,0.4s-0.1,0.3-0.2,0.4C87.8,44,87.6,44,87.4,44h-2.7l0,0v2.2l0,0
			h3.1c0.2,0,0.5,0,0.7-0.1s0.5-0.1,0.7-0.3c0.2-0.1,0.4-0.3,0.5-0.5s0.2-0.5,0.2-0.9c0-0.3-0.1-0.6-0.2-0.9
			c-0.1-0.2-0.3-0.4-0.5-0.6l0,0h0.5l0,0v-2.2l0,0h-5.1l0,0L84.7,43L84.7,43z"/>
		<path d="M84.7,47.9L84.7,47.9h-1.1l0,0v2.2l0,0h1.1l0,0v0.7l0,0h0.4c-0.1,0.3-0.3,0.6-0.4,0.9c-0.1,0.4-0.1,0.8-0.1,1.2
			c0,0.2,0,0.5,0.1,0.7c0,0.2,0.1,0.5,0.3,0.7c0.1,0.2,0.3,0.4,0.5,0.5S86,55,86.3,55c0.2,0,0.4,0,0.6-0.1c0.1-0.1,0.3-0.2,0.4-0.3
			s0.2-0.3,0.3-0.4c0.1-0.1,0.1-0.3,0.1-0.5c0.1-0.3,0.1-0.5,0.2-0.6s0.1-0.2,0.2-0.2s0.1,0,0.1,0.1c0,0,0,0.1,0,0.2
			c0,0.2,0,0.4-0.1,0.6s-0.2,0.4-0.3,0.5l0,0l1.3,1.1l0,0c0.2-0.3,0.4-0.7,0.5-1.1c0.1-0.4,0.2-0.8,0.2-1.3c0-0.2-0.1-0.5-0.1-0.7
			s-0.1-0.5-0.3-0.7c-0.1-0.2-0.3-0.4-0.5-0.5s-0.5-0.2-0.8-0.2c-0.2,0-0.4,0-0.6,0.1s-0.3,0.2-0.4,0.3s-0.2,0.3-0.3,0.5
			c-0.1,0.2-0.1,0.4-0.2,0.6c0,0.3-0.1,0.5-0.1,0.5C86.4,53,86.4,53,86.3,53s-0.1,0-0.1-0.1s0-0.1,0-0.2c0-0.1,0-0.3,0.1-0.5
			c0.1-0.1,0.2-0.3,0.2-0.5l0,0l-1.1-0.9l0,0h1l0,0v-0.7l0,0h1.8c0.6,0,1.1-0.1,1.4-0.5c0.3-0.3,0.4-0.8,0.4-1.5c0-0.2,0-0.4,0-0.7
			c0-0.2-0.1-0.4-0.1-0.5l0,0h-1.5c0,0,0.1,0.1,0.1,0.2s0,0.1,0,0.2c0,0.2-0.1,0.3-0.2,0.4c-0.1,0.1-0.2,0.1-0.5,0.1h-1.3l0,0v-1.1
			l0,0h-1.6l0,0L84.7,47.9L84.7,47.9L84.7,47.9z"/>
		<path d="M89.9,27.3c-0.1-0.3-0.3-0.7-0.5-0.9c-0.2-0.2-0.5-0.5-0.9-0.6s-0.7-0.2-1.2-0.2c-0.4,0-0.8,0.1-1.1,0.2
			c-0.3,0.1-0.6,0.4-0.8,0.6c-0.2,0.2-0.4,0.6-0.5,0.9s-0.2,0.7-0.2,1.1s0,0.7,0.2,1.1c0.2,0.3,0.3,0.7,0.5,0.9s0.5,0.5,0.8,0.6
			s0.7,0.2,1.1,0.2s0.8-0.1,1.2-0.2c0.3-0.1,0.6-0.4,0.9-0.6s0.4-0.6,0.5-0.9s0.2-0.7,0.2-1.1S90.1,27.7,89.9,27.3z M87.9,29
			c-0.1,0.1-0.4,0.2-0.6,0.2s-0.3,0-0.5-0.1s-0.3-0.4-0.3-0.7c0-0.2,0.1-0.4,0.2-0.6c0.1-0.1,0.3-0.2,0.6-0.2c0.2,0,0.5,0.1,0.6,0.2
			s0.2,0.3,0.2,0.6C88.2,28.7,88.1,28.9,87.9,29z"/>
		<polygon points="87.9,34 87.9,34 89.9,34 89.9,34 89.9,31.8 89.9,31.8 84.8,31.8 84.8,31.8 		"/>
		<path d="M82.4,32.1c-0.1,0.1-0.2,0.2-0.2,0.3s-0.1,0.3-0.1,0.4c0,0,0,0.1,0,0.2c0,0.1,0,0.1,0.1,0.2c0,0.1,0.1,0.2,0.2,0.4
			c0.1,0.1,0.2,0.2,0.3,0.2s0.3,0.1,0.4,0.1s0.3,0,0.4-0.1c0.2,0,0.2-0.1,0.3-0.2c0.1-0.1,0.2-0.2,0.2-0.4s0.1-0.3,0.1-0.4
			S84,32.5,84,32.4s-0.1-0.2-0.2-0.3s-0.2-0.2-0.3-0.2c-0.1,0-0.3-0.1-0.4-0.1s-0.3,0-0.4,0.1C82.7,31.9,82.5,32,82.4,32.1z"/>
	</g>
</g>
</svg>
